<svg width="58" height="58" viewBox="0 0 58 58" fill="none" xmlns="http://www.w3.org/2000/svg" xmlns:xlink="http://www.w3.org/1999/xlink">
<rect  x="0" y="0" width="58" height="58" rx="50" fill="#1E1E1E"/>
<path d="M19.521,15.279C18.35,14.107 16.45,14.107 15.279,15.279C14.107,16.45 14.107,18.35 15.279,19.521L19.521,15.279ZM29,29L31.121,31.121L33.243,29L31.121,26.879L29,29ZM15.279,38.479C14.107,39.65 14.107,41.55 15.279,42.721C16.45,43.893 18.35,43.893 19.521,42.721L15.279,38.479ZM15.279,19.521L26.879,31.121L31.121,26.879L19.521,15.279L15.279,19.521ZM26.879,26.879L15.279,38.479L19.521,42.721L31.121,31.121L26.879,26.879Z" transform="rotate(360 23.2 29)" fill="#FFFFFF"/>
<line x1="17.4" y1="26" x2="40.6" y2="26" stroke="#FFFFFF" stroke-width="3" stroke-miterlimit="3.999327" stroke-linecap="round"/>
</svg>
