<svg width="70" height="70" viewBox="0 0 70 70" fill="none" xmlns="http://www.w3.org/2000/svg" xmlns:xlink="http://www.w3.org/1999/xlink">
<rect  x="0" y="0" width="70" height="70" rx="50" fill="#1E1E1E"/>
<path d="M23.121,18.879C21.95,17.707 20.05,17.707 18.879,18.879C17.707,20.05 17.707,21.95 18.879,23.121L23.121,18.879ZM35,35L37.121,37.121L39.243,35L37.121,32.879L35,35ZM18.879,46.879C17.707,48.05 17.707,49.95 18.879,51.121C20.05,52.293 21.95,52.293 23.121,51.121L18.879,46.879ZM18.879,23.121L32.879,37.121L37.121,32.879L23.121,18.879L18.879,23.121ZM32.879,32.879L18.879,46.879L23.121,51.121L37.121,37.121L32.879,32.879Z" transform="rotate(360 28 35)" fill="#FFFFFF"/>
<line x1="21" y1="32" x2="49" y2="32" stroke="#FFFFFF" stroke-width="3" stroke-miterlimit="3.999327" stroke-linecap="round"/>
</svg>
