<svg width="24" height="30" viewBox="0 0 24 30" fill="none" xmlns="http://www.w3.org/2000/svg" xmlns:xlink="http://www.w3.org/1999/xlink">
<path d="M11,29C10.631,29 10.314,28.9 10.05,28.7C9.786,28.5 9.588,28.237 9.456,27.912C8.955,26.512 8.322,25.2 7.556,23.975C6.817,22.75 5.775,21.312 4.429,19.662C3.083,18.012 1.988,16.438 1.144,14.938C0.326,13.438 -0.083,11.625 -0.083,9.5C-0.083,6.575 0.985,4.1 3.123,2.075C5.287,0.025 7.913,-1 11,-1C14.088,-1 16.7,0.025 18.838,2.075C21.002,4.1 22.083,6.575 22.083,9.5C22.083,11.775 21.622,13.675 20.698,15.2C19.801,16.7 18.758,18.188 17.571,19.662C16.146,21.462 15.064,22.962 14.325,24.162C13.613,25.337 13.019,26.587 12.544,27.912C12.412,28.262 12.201,28.538 11.911,28.738C11.647,28.913 11.343,29 11,29ZM11,23.637C11.449,22.787 11.95,21.95 12.504,21.125C13.085,20.3 13.929,19.2 15.038,17.825C16.172,16.425 17.096,15.137 17.808,13.962C18.547,12.762 18.917,11.275 18.917,9.5C18.917,7.425 18.138,5.663 16.581,4.212C15.051,2.738 13.19,2 11,2C8.81,2 6.936,2.738 5.379,4.212C3.849,5.663 3.083,7.425 3.083,9.5C3.083,11.275 3.44,12.762 4.152,13.962C4.891,15.137 5.828,16.425 6.963,17.825C8.071,19.2 8.902,20.3 9.456,21.125C10.037,21.95 10.551,22.787 11,23.637ZM11,13.25C12.108,13.25 13.045,12.887 13.811,12.163C14.576,11.438 14.958,10.55 14.958,9.5C14.958,8.45 14.576,7.563 13.811,6.837C13.045,6.113 12.108,5.75 11,5.75C9.892,5.75 8.955,6.113 8.19,6.837C7.424,7.563 7.042,8.45 7.042,9.5C7.042,10.55 7.424,11.438 8.19,12.163C8.955,12.887 9.892,13.25 11,13.25Z" fill="#FF3B30"/>
</svg>
