<svg width="10" height="18" viewBox="0 0 10 18" fill="none" xmlns="http://www.w3.org/2000/svg" xmlns:xlink="http://www.w3.org/1999/xlink">
<path d="M0.173,18L0.173,0.545L2.764,0.545L2.764,3.182L2.946,3.182C3.264,2.318 3.84,1.617 4.673,1.08C5.507,0.542 6.446,0.273 7.491,0.273C7.688,0.273 7.935,0.276 8.23,0.284C8.526,0.292 8.749,0.303 8.901,0.318L8.901,3.045C8.81,3.023 8.601,2.989 8.276,2.943C7.957,2.89 7.62,2.864 7.264,2.864C6.416,2.864 5.658,3.042 4.991,3.398C4.332,3.746 3.81,4.231 3.423,4.852C3.044,5.466 2.855,6.167 2.855,6.955L2.855,18L0.173,18Z" fill="#FFFFFF"/>
</svg>
