<svg width="18" height="28" viewBox="0 0 18 28" fill="none" xmlns="http://www.w3.org/2000/svg" xmlns:xlink="http://www.w3.org/1999/xlink">
<path d="M3.414,0.586C2.633,-0.195 1.366,-0.195 0.585,0.586C-0.196,1.367 -0.196,2.633 0.585,3.414L3.414,0.586ZM13.6,13.6L15.014,15.014L16.428,13.6L15.014,12.186L13.6,13.6ZM0.585,23.786C-0.196,24.567 -0.196,25.833 0.585,26.614C1.366,27.395 2.633,27.395 3.414,26.614L0.585,23.786ZM0.585,3.414L12.185,15.014L15.014,12.186L3.414,0.586L0.585,3.414ZM12.185,12.186L0.585,23.786L3.414,26.614L15.014,15.014L12.185,12.186Z" fill="#1E1E1E"/>
</svg>
