<svg width="16" height="24" viewBox="0 0 16 24" fill="none" xmlns="http://www.w3.org/2000/svg" xmlns:xlink="http://www.w3.org/1999/xlink">
<path d="M3.48,13.5L3.48,24L0.798,24L0.798,0.727L3.48,0.727L3.48,9.273L3.707,9.273C4.116,8.371 4.73,7.655 5.548,7.125C6.374,6.587 7.473,6.318 8.844,6.318C10.033,6.318 11.075,6.557 11.969,7.034C12.863,7.504 13.556,8.227 14.048,9.205C14.548,10.174 14.798,11.409 14.798,12.909L14.798,24L12.116,24L12.116,13.091C12.116,11.705 11.757,10.633 11.037,9.875C10.325,9.11 9.336,8.727 8.071,8.727C7.192,8.727 6.404,8.913 5.707,9.284C5.018,9.655 4.473,10.197 4.071,10.909C3.677,11.621 3.48,12.485 3.48,13.5Z" fill="#FFFFFF"/>
</svg>
