<svg width="14" height="22" viewBox="0 0 14 22" fill="none" xmlns="http://www.w3.org/2000/svg" xmlns:xlink="http://www.w3.org/1999/xlink">
<path d="M2.87,1.034C2.336,0.553 1.514,0.597 1.034,1.13C0.553,1.664 0.597,2.486 1.13,2.966L2.87,1.034ZM12,11L12.87,11.966L13.943,11L12.87,10.034L12,11ZM1.13,19.034C0.597,19.514 0.553,20.336 1.034,20.87C1.514,21.403 2.336,21.447 2.87,20.966L1.13,19.034ZM1.13,2.966L11.13,11.966L12.87,10.034L2.87,1.034L1.13,2.966ZM11.13,10.034L1.13,19.034L2.87,20.966L12.87,11.966L11.13,10.034Z" fill="#FFFFFF"/>
</svg>
