<svg width="26" height="40" viewBox="0 0 26 40" fill="none" xmlns="http://www.w3.org/2000/svg" xmlns:xlink="http://www.w3.org/1999/xlink">
<path d="M6.121,1.879C4.95,0.707 3.05,0.707 1.879,1.879C0.707,3.05 0.707,4.95 1.879,6.121L6.121,1.879ZM20,20L22.121,22.121L24.243,20L22.121,17.879L20,20ZM1.879,33.879C0.707,35.05 0.707,36.95 1.879,38.121C3.05,39.293 4.95,39.293 6.121,38.121L1.879,33.879ZM1.879,6.121L17.879,22.121L22.121,17.879L6.121,1.879L1.879,6.121ZM17.879,17.879L1.879,33.879L6.121,38.121L22.121,22.121L17.879,17.879Z" fill="#FFFFFF"/>
</svg>
