<svg width="14" height="18" viewBox="0 0 14 18" fill="none" xmlns="http://www.w3.org/2000/svg" xmlns:xlink="http://www.w3.org/1999/xlink">
<path d="M2.449,7.5L2.449,18L-0.233,18L-0.233,0.545L2.358,0.545L2.358,3.273L2.585,3.273C2.994,2.386 3.616,1.674 4.449,1.136C5.282,0.591 6.358,0.318 7.676,0.318C8.858,0.318 9.892,0.561 10.778,1.045C11.665,1.523 12.354,2.25 12.847,3.227C13.339,4.197 13.585,5.424 13.585,6.909L13.585,18L10.903,18L10.903,7.091C10.903,5.72 10.547,4.652 9.835,3.886C9.123,3.114 8.146,2.727 6.903,2.727C6.047,2.727 5.282,2.913 4.608,3.284C3.941,3.655 3.415,4.197 3.028,4.909C2.642,5.621 2.449,6.485 2.449,7.5Z" fill="#FFFFFF"/>
</svg>
