<svg width="16" height="18" viewBox="0 0 16 18" fill="none" xmlns="http://www.w3.org/2000/svg" xmlns:xlink="http://www.w3.org/1999/xlink">
<path d="M3.199,7.5L3.199,18L0.517,18L0.517,0.545L3.108,0.545L3.108,3.273L3.335,3.273C3.744,2.386 4.366,1.674 5.199,1.136C6.032,0.591 7.108,0.318 8.426,0.318C9.608,0.318 10.642,0.561 11.528,1.045C12.415,1.523 13.104,2.25 13.597,3.227C14.089,4.197 14.335,5.424 14.335,6.909L14.335,18L11.653,18L11.653,7.091C11.653,5.72 11.297,4.652 10.585,3.886C9.873,3.114 8.896,2.727 7.653,2.727C6.797,2.727 6.032,2.913 5.358,3.284C4.691,3.655 4.165,4.197 3.778,4.909C3.392,5.621 3.199,6.485 3.199,7.5Z" fill="#FFFFFF"/>
</svg>
