<svg width="16" height="20" viewBox="0 0 16 20" fill="none" xmlns="http://www.w3.org/2000/svg" xmlns:xlink="http://www.w3.org/1999/xlink">
<path d="M7.96,18.364C6.278,18.364 4.828,17.992 3.608,17.25C2.396,16.5 1.46,15.455 0.801,14.114C0.15,12.765 -0.176,11.197 -0.176,9.409C-0.176,7.621 0.15,6.045 0.801,4.682C1.46,3.311 2.377,2.242 3.551,1.477C4.733,0.705 6.112,0.318 7.687,0.318C8.597,0.318 9.494,0.47 10.381,0.773C11.267,1.076 12.074,1.568 12.801,2.25C13.528,2.924 14.108,3.818 14.54,4.932C14.972,6.045 15.187,7.417 15.187,9.045L15.187,10.182L1.733,10.182L1.733,7.864L12.46,7.864C12.46,6.879 12.263,6 11.869,5.227C11.483,4.455 10.93,3.845 10.21,3.398C9.498,2.951 8.657,2.727 7.687,2.727C6.619,2.727 5.695,2.992 4.915,3.523C4.142,4.045 3.547,4.727 3.131,5.568C2.714,6.409 2.506,7.311 2.506,8.273L2.506,9.818C2.506,11.136 2.733,12.254 3.187,13.17C3.65,14.08 4.29,14.773 5.108,15.25C5.926,15.72 6.877,15.955 7.96,15.955C8.665,15.955 9.301,15.856 9.869,15.659C10.445,15.455 10.941,15.152 11.358,14.75C11.775,14.341 12.097,13.833 12.324,13.227L14.915,13.955C14.642,14.833 14.184,15.606 13.54,16.273C12.896,16.932 12.1,17.447 11.153,17.818C10.206,18.182 9.142,18.364 7.96,18.364Z" fill="#FFFFFF"/>
</svg>
