<svg width="16" height="20" viewBox="0 0 16 20" fill="none" xmlns="http://www.w3.org/2000/svg" xmlns:xlink="http://www.w3.org/1999/xlink">
<path d="M6.372,18.409C5.266,18.409 4.262,18.201 3.361,17.784C2.459,17.36 1.743,16.75 1.213,15.955C0.683,15.152 0.418,14.182 0.418,13.045C0.418,12.045 0.615,11.235 1.009,10.614C1.402,9.985 1.929,9.492 2.588,9.136C3.247,8.78 3.974,8.515 4.77,8.341C5.573,8.159 6.38,8.015 7.19,7.909C8.251,7.773 9.111,7.67 9.77,7.602C10.437,7.527 10.921,7.402 11.224,7.227C11.535,7.053 11.69,6.75 11.69,6.318L11.69,6.227C11.69,5.106 11.384,4.235 10.77,3.614C10.164,2.992 9.243,2.682 8.009,2.682C6.728,2.682 5.724,2.962 4.997,3.523C4.27,4.083 3.759,4.682 3.463,5.318L0.918,4.409C1.372,3.348 1.978,2.523 2.736,1.932C3.501,1.333 4.334,0.917 5.236,0.682C6.145,0.439 7.039,0.318 7.918,0.318C8.478,0.318 9.122,0.386 9.849,0.523C10.584,0.652 11.293,0.92 11.974,1.33C12.664,1.739 13.236,2.356 13.69,3.182C14.145,4.008 14.372,5.114 14.372,6.5L14.372,18L11.69,18L11.69,15.636L11.554,15.636C11.372,16.015 11.069,16.42 10.645,16.852C10.221,17.284 9.656,17.652 8.952,17.955C8.247,18.258 7.387,18.409 6.372,18.409ZM6.781,16C7.842,16 8.736,15.792 9.463,15.375C10.198,14.958 10.751,14.42 11.122,13.761C11.501,13.102 11.69,12.409 11.69,11.682L11.69,9.227C11.577,9.364 11.327,9.489 10.94,9.602C10.562,9.708 10.122,9.803 9.622,9.886C9.13,9.962 8.649,10.03 8.179,10.091C7.717,10.144 7.342,10.189 7.054,10.227C6.357,10.318 5.705,10.466 5.099,10.67C4.501,10.867 4.016,11.167 3.645,11.568C3.281,11.962 3.099,12.5 3.099,13.182C3.099,14.114 3.444,14.818 4.134,15.295C4.83,15.765 5.713,16 6.781,16Z" fill="#FFFFFF"/>
</svg>
