<svg width="26" height="8" viewBox="0 0 26 8" fill="none" xmlns="http://www.w3.org/2000/svg" xmlns:xlink="http://www.w3.org/1999/xlink">
<path d="M0.464,4.72C-0.244,5.568 -0.129,6.829 0.72,7.536C1.568,8.244 2.829,8.129 3.536,7.28L0.464,4.72ZM22.586,7.414C23.367,8.195 24.633,8.195 25.414,7.414C26.195,6.633 26.195,5.367 25.414,4.586L22.586,7.414ZM3.536,7.28C5.569,4.841 8.943,3.5 12.625,3.5C16.297,3.5 20.012,4.841 22.586,7.414L25.414,4.586C21.988,1.159 17.203,-0.5 12.625,-0.5C8.057,-0.5 3.431,1.159 0.464,4.72L3.536,7.28Z" fill="#000000"/>
</svg>
