<svg width="14" height="20" viewBox="0 0 14 20" fill="none" xmlns="http://www.w3.org/2000/svg" xmlns:xlink="http://www.w3.org/1999/xlink">
<path d="M5.278,18.409C4.172,18.409 3.169,18.201 2.267,17.784C1.366,17.36 0.65,16.75 0.119,15.955C-0.411,15.152 -0.676,14.182 -0.676,13.045C-0.676,12.045 -0.479,11.235 -0.085,10.614C0.309,9.985 0.835,9.492 1.494,9.136C2.153,8.78 2.881,8.515 3.676,8.341C4.479,8.159 5.286,8.015 6.097,7.909C7.157,7.773 8.017,7.67 8.676,7.602C9.343,7.527 9.828,7.402 10.131,7.227C10.441,7.053 10.597,6.75 10.597,6.318L10.597,6.227C10.597,5.106 10.29,4.235 9.676,3.614C9.07,2.992 8.15,2.682 6.915,2.682C5.634,2.682 4.631,2.962 3.903,3.523C3.176,4.083 2.665,4.682 2.369,5.318L-0.176,4.409C0.278,3.348 0.884,2.523 1.642,1.932C2.407,1.333 3.241,0.917 4.142,0.682C5.051,0.439 5.945,0.318 6.824,0.318C7.384,0.318 8.028,0.386 8.756,0.523C9.491,0.652 10.199,0.92 10.881,1.33C11.57,1.739 12.142,2.356 12.597,3.182C13.051,4.008 13.278,5.114 13.278,6.5L13.278,18L10.597,18L10.597,15.636L10.46,15.636C10.278,16.015 9.975,16.42 9.551,16.852C9.127,17.284 8.562,17.652 7.858,17.955C7.153,18.258 6.294,18.409 5.278,18.409ZM5.687,16C6.748,16 7.642,15.792 8.369,15.375C9.104,14.958 9.657,14.42 10.028,13.761C10.407,13.102 10.597,12.409 10.597,11.682L10.597,9.227C10.483,9.364 10.233,9.489 9.847,9.602C9.468,9.708 9.028,9.803 8.528,9.886C8.036,9.962 7.555,10.03 7.085,10.091C6.623,10.144 6.248,10.189 5.96,10.227C5.263,10.318 4.612,10.466 4.006,10.67C3.407,10.867 2.922,11.167 2.551,11.568C2.187,11.962 2.006,12.5 2.006,13.182C2.006,14.114 2.35,14.818 3.04,15.295C3.737,15.765 4.619,16 5.687,16Z" fill="#FFFFFF"/>
</svg>
