<svg width="34" height="10" viewBox="0 0 34 10" fill="none" xmlns="http://www.w3.org/2000/svg" xmlns:xlink="http://www.w3.org/1999/xlink">
<path d="M0.671,6.505C-0.154,7.239 -0.229,8.503 0.505,9.329C1.239,10.154 2.503,10.229 3.329,9.495L0.671,6.505ZM30.8,9.6C31.684,10.263 32.937,10.084 33.6,9.2C34.263,8.316 34.084,7.063 33.2,6.4L30.8,9.6ZM3.329,9.495C7.62,5.68 11.686,3.733 15.926,3.624C20.186,3.515 25.001,5.251 30.8,9.6L33.2,6.4C26.999,1.749 21.314,-0.515 15.824,-0.374C10.314,-0.233 5.38,2.32 0.671,6.505L3.329,9.495Z" fill="#000000"/>
</svg>
