<svg width="14" height="20" viewBox="0 0 14 20" fill="none" xmlns="http://www.w3.org/2000/svg" xmlns:xlink="http://www.w3.org/1999/xlink">
<path d="M5.06,18.409C3.954,18.409 2.95,18.201 2.048,17.784C1.147,17.36 0.431,16.75 -0.099,15.955C-0.63,15.152 -0.895,14.182 -0.895,13.045C-0.895,12.045 -0.698,11.235 -0.304,10.614C0.09,9.985 0.616,9.492 1.276,9.136C1.935,8.78 2.662,8.515 3.457,8.341C4.26,8.159 5.067,8.015 5.878,7.909C6.938,7.773 7.798,7.67 8.457,7.602C9.124,7.527 9.609,7.402 9.912,7.227C10.223,7.053 10.378,6.75 10.378,6.318L10.378,6.227C10.378,5.106 10.071,4.235 9.457,3.614C8.851,2.992 7.931,2.682 6.696,2.682C5.416,2.682 4.412,2.962 3.685,3.523C2.957,4.083 2.446,4.682 2.151,5.318L-0.395,4.409C0.06,3.348 0.666,2.523 1.423,1.932C2.188,1.333 3.022,0.917 3.923,0.682C4.832,0.439 5.726,0.318 6.605,0.318C7.166,0.318 7.81,0.386 8.537,0.523C9.272,0.652 9.98,0.92 10.662,1.33C11.351,1.739 11.923,2.356 12.378,3.182C12.832,4.008 13.06,5.114 13.06,6.5L13.06,18L10.378,18L10.378,15.636L10.241,15.636C10.06,16.015 9.757,16.42 9.332,16.852C8.908,17.284 8.344,17.652 7.639,17.955C6.935,18.258 6.075,18.409 5.06,18.409ZM5.469,16C6.529,16 7.423,15.792 8.151,15.375C8.885,14.958 9.438,14.42 9.81,13.761C10.188,13.102 10.378,12.409 10.378,11.682L10.378,9.227C10.264,9.364 10.014,9.489 9.628,9.602C9.249,9.708 8.81,9.803 8.31,9.886C7.817,9.962 7.336,10.03 6.866,10.091C6.404,10.144 6.029,10.189 5.741,10.227C5.045,10.318 4.393,10.466 3.787,10.67C3.188,10.867 2.704,11.167 2.332,11.568C1.969,11.962 1.787,12.5 1.787,13.182C1.787,14.114 2.132,14.818 2.821,15.295C3.518,15.765 4.401,16 5.469,16Z" fill="#FFFFFF"/>
</svg>
