<svg width="14" height="20" viewBox="0 0 14 20" fill="none" xmlns="http://www.w3.org/2000/svg" xmlns:xlink="http://www.w3.org/1999/xlink">
<path d="M12.443,4.455L10.034,5.136C9.883,4.735 9.659,4.345 9.364,3.966C9.076,3.58 8.682,3.261 8.182,3.011C7.682,2.761 7.042,2.636 6.261,2.636C5.193,2.636 4.303,2.883 3.591,3.375C2.886,3.86 2.534,4.477 2.534,5.227C2.534,5.894 2.777,6.42 3.261,6.807C3.746,7.193 4.504,7.515 5.534,7.773L8.125,8.409C9.686,8.788 10.848,9.367 11.614,10.148C12.379,10.92 12.761,11.917 12.761,13.136C12.761,14.136 12.473,15.03 11.898,15.818C11.33,16.606 10.534,17.227 9.511,17.682C8.489,18.136 7.299,18.364 5.943,18.364C4.163,18.364 2.689,17.977 1.523,17.205C0.356,16.432 -0.383,15.303 -0.693,13.818L1.852,13.182C2.095,14.121 2.553,14.826 3.227,15.295C3.909,15.765 4.799,16 5.898,16C7.148,16 8.14,15.735 8.875,15.205C9.617,14.667 9.989,14.023 9.989,13.273C9.989,12.667 9.777,12.159 9.352,11.75C8.928,11.333 8.277,11.023 7.398,10.818L4.489,10.136C2.89,9.758 1.716,9.17 0.966,8.375C0.223,7.572 -0.148,6.568 -0.148,5.364C-0.148,4.379 0.129,3.508 0.682,2.75C1.242,1.992 2.004,1.398 2.966,0.966C3.936,0.534 5.034,0.318 6.261,0.318C7.989,0.318 9.345,0.697 10.33,1.455C11.322,2.212 12.027,3.212 12.443,4.455Z" fill="#FFFFFF"/>
</svg>
