<svg width="16" height="20" viewBox="0 0 16 20" fill="none" xmlns="http://www.w3.org/2000/svg" xmlns:xlink="http://www.w3.org/1999/xlink">
<path d="M6.841,18.409C5.735,18.409 4.731,18.201 3.83,17.784C2.928,17.36 2.212,16.75 1.682,15.955C1.152,15.152 0.886,14.182 0.886,13.045C0.886,12.045 1.083,11.235 1.477,10.614C1.871,9.985 2.398,9.492 3.057,9.136C3.716,8.78 4.443,8.515 5.239,8.341C6.042,8.159 6.848,8.015 7.659,7.909C8.72,7.773 9.58,7.67 10.239,7.602C10.905,7.527 11.39,7.402 11.693,7.227C12.004,7.053 12.159,6.75 12.159,6.318L12.159,6.227C12.159,5.106 11.852,4.235 11.239,3.614C10.633,2.992 9.712,2.682 8.477,2.682C7.197,2.682 6.193,2.962 5.466,3.523C4.739,4.083 4.227,4.682 3.932,5.318L1.386,4.409C1.841,3.348 2.447,2.523 3.205,1.932C3.97,1.333 4.803,0.917 5.705,0.682C6.614,0.439 7.508,0.318 8.386,0.318C8.947,0.318 9.591,0.386 10.318,0.523C11.053,0.652 11.761,0.92 12.443,1.33C13.133,1.739 13.705,2.356 14.159,3.182C14.614,4.008 14.841,5.114 14.841,6.5L14.841,18L12.159,18L12.159,15.636L12.023,15.636C11.841,16.015 11.538,16.42 11.114,16.852C10.689,17.284 10.125,17.652 9.42,17.955C8.716,18.258 7.856,18.409 6.841,18.409ZM7.25,16C8.311,16 9.205,15.792 9.932,15.375C10.667,14.958 11.22,14.42 11.591,13.761C11.97,13.102 12.159,12.409 12.159,11.682L12.159,9.227C12.045,9.364 11.795,9.489 11.409,9.602C11.03,9.708 10.591,9.803 10.091,9.886C9.598,9.962 9.117,10.03 8.648,10.091C8.186,10.144 7.811,10.189 7.523,10.227C6.826,10.318 6.174,10.466 5.568,10.67C4.97,10.867 4.485,11.167 4.114,11.568C3.75,11.962 3.568,12.5 3.568,13.182C3.568,14.114 3.913,14.818 4.602,15.295C5.299,15.765 6.182,16 7.25,16Z" fill="#FFFFFF"/>
</svg>
