<svg width="14" height="20" viewBox="0 0 14 20" fill="none" xmlns="http://www.w3.org/2000/svg" xmlns:xlink="http://www.w3.org/1999/xlink">
<path d="M5.622,18.409C4.516,18.409 3.512,18.201 2.611,17.784C1.709,17.36 0.993,16.75 0.463,15.955C-0.067,15.152 -0.332,14.182 -0.332,13.045C-0.332,12.045 -0.135,11.235 0.259,10.614C0.652,9.985 1.179,9.492 1.838,9.136C2.497,8.78 3.224,8.515 4.02,8.341C4.823,8.159 5.63,8.015 6.44,7.909C7.501,7.773 8.361,7.67 9.02,7.602C9.687,7.527 10.171,7.402 10.474,7.227C10.785,7.053 10.94,6.75 10.94,6.318L10.94,6.227C10.94,5.106 10.634,4.235 10.02,3.614C9.414,2.992 8.493,2.682 7.259,2.682C5.978,2.682 4.974,2.962 4.247,3.523C3.52,4.083 3.009,4.682 2.713,5.318L0.168,4.409C0.622,3.348 1.228,2.523 1.986,1.932C2.751,1.333 3.584,0.917 4.486,0.682C5.395,0.439 6.289,0.318 7.168,0.318C7.728,0.318 8.372,0.386 9.099,0.523C9.834,0.652 10.543,0.92 11.224,1.33C11.914,1.739 12.486,2.356 12.94,3.182C13.395,4.008 13.622,5.114 13.622,6.5L13.622,18L10.94,18L10.94,15.636L10.804,15.636C10.622,16.015 10.319,16.42 9.895,16.852C9.471,17.284 8.906,17.652 8.202,17.955C7.497,18.258 6.637,18.409 5.622,18.409ZM6.031,16C7.092,16 7.986,15.792 8.713,15.375C9.448,14.958 10.001,14.42 10.372,13.761C10.751,13.102 10.94,12.409 10.94,11.682L10.94,9.227C10.827,9.364 10.577,9.489 10.19,9.602C9.812,9.708 9.372,9.803 8.872,9.886C8.38,9.962 7.899,10.03 7.429,10.091C6.967,10.144 6.592,10.189 6.304,10.227C5.607,10.318 4.955,10.466 4.349,10.67C3.751,10.867 3.266,11.167 2.895,11.568C2.531,11.962 2.349,12.5 2.349,13.182C2.349,14.114 2.694,14.818 3.384,15.295C4.08,15.765 4.963,16 6.031,16Z" fill="#FFFFFF"/>
</svg>
