<svg width="26" height="40" viewBox="0 0 26 40" fill="none" xmlns="http://www.w3.org/2000/svg" xmlns:xlink="http://www.w3.org/1999/xlink">
<path d="M6.121,1.502C4.95,0.331 3.05,0.331 1.879,1.502C0.707,2.674 0.707,4.574 1.879,5.745L6.121,1.502ZM20,19.624L22.121,21.745L24.243,19.624L22.121,17.502L20,19.624ZM1.879,33.502C0.707,34.674 0.707,36.574 1.879,37.745C3.05,38.917 4.95,38.917 6.121,37.745L1.879,33.502ZM1.879,5.745L17.879,21.745L22.121,17.502L6.121,1.502L1.879,5.745ZM17.879,17.502L1.879,33.502L6.121,37.745L22.121,21.745L17.879,17.502Z" fill="#FFFFFF"/>
</svg>
