<svg width="26" height="26" viewBox="0 0 26 26" fill="none" xmlns="http://www.w3.org/2000/svg">
<path fill-rule="evenodd" clip-rule="evenodd" d="M16.0936 4.09992C15.185 3.55878 14.1253 3.25 13 3.25C9.91629 3.25 7.3257 5.56868 6.98516 8.63354L6.71238 11.0886C6.69292 11.2638 6.68318 11.3514 6.67167 11.4378C6.53524 12.4617 6.20181 13.4495 5.68979 14.3467C5.64657 14.4224 5.60124 14.4979 5.51059 14.649L5.51054 14.6491L4.88434 15.6928C4.2468 16.7553 3.92803 17.2866 4.06161 17.7146C4.10401 17.8505 4.17491 17.9757 4.26958 18.0819C4.56784 18.4167 5.18743 18.4167 6.42659 18.4167H19.5734C20.8126 18.4167 21.4322 18.4167 21.7304 18.0819C21.8251 17.9757 21.896 17.8505 21.9384 17.7146C22.072 17.2866 21.7532 16.7553 21.1157 15.6928L20.4895 14.6491L20.4894 14.649C20.3988 14.4979 20.3534 14.4224 20.3102 14.3467C19.7982 13.4495 19.4648 12.4617 19.3283 11.4378C19.3168 11.3514 19.3071 11.2638 19.2876 11.0886L19.2399 10.6587C17.0599 10.5244 15.3333 8.71382 15.3333 6.5C15.3333 5.60635 15.6147 4.77842 16.0936 4.09992ZM17.6302 5.40457C18.3742 6.28747 18.8722 7.38979 19.0124 8.61157C18.0506 8.39036 17.3333 7.52894 17.3333 6.5C17.3333 6.10035 17.4415 5.72597 17.6302 5.40457Z" fill="#111111"/>
<path d="M9.75 18.4167C9.75 18.8435 9.83406 19.2662 9.99739 19.6605C10.1607 20.0548 10.4001 20.4131 10.7019 20.7148C11.0037 21.0166 11.362 21.256 11.7563 21.4194C12.1506 21.5827 12.5732 21.6667 13 21.6667C13.4268 21.6667 13.8494 21.5827 14.2437 21.4194C14.638 21.256 14.9963 21.0166 15.2981 20.7148C15.5999 20.4131 15.8393 20.0548 16.0026 19.6605C16.1659 19.2662 16.25 18.8435 16.25 18.4167L13 18.4167H9.75Z" fill="#111111"/>
<circle cx="19.5" cy="6.49992" r="2.41667" fill="#111111" stroke="#111111" stroke-width="0.5"/>
</svg>
