<svg width="80" height="13" viewBox="0 0 80 13" fill="none" xmlns="http://www.w3.org/2000/svg">
<path fill-rule="evenodd" clip-rule="evenodd" d="M19.2 1.53295C19.2 0.899902 18.7224 0.386719 18.1333 0.386719H17.0667C16.4776 0.386719 16 0.899902 16 1.53295V11.4669C16 12.0999 16.4776 12.6131 17.0667 12.6131H18.1333C18.7224 12.6131 19.2 12.0999 19.2 11.4669V1.53295ZM11.7659 2.832H12.8326C13.4217 2.832 13.8992 3.3575 13.8992 4.00574V11.4394C13.8992 12.0876 13.4217 12.6131 12.8326 12.6131H11.7659C11.1768 12.6131 10.6992 12.0876 10.6992 11.4394V4.00574C10.6992 3.3575 11.1768 2.832 11.7659 2.832ZM7.43411 5.48105H6.36745C5.77834 5.48105 5.30078 6.01324 5.30078 6.66973V11.4244C5.30078 12.0809 5.77834 12.6131 6.36745 12.6131H7.43411C8.02322 12.6131 8.50078 12.0809 8.50078 11.4244V6.66973C8.50078 6.01324 8.02322 5.48105 7.43411 5.48105ZM2.13333 7.92634H1.06667C0.477563 7.92634 0 8.45093 0 9.09804V11.4414C0 12.0885 0.477563 12.6131 1.06667 12.6131H2.13333C2.72244 12.6131 3.2 12.0885 3.2 11.4414V9.09804C3.2 8.45093 2.72244 7.92634 2.13333 7.92634Z" fill="white"/>
<path fill-rule="evenodd" clip-rule="evenodd" d="M35.7713 2.80222C38.2584 2.80232 40.6504 3.72441 42.4529 5.37789C42.5886 5.50554 42.8056 5.50393 42.9393 5.37428L44.2367 4.11081C44.3044 4.04505 44.3422 3.95597 44.3416 3.86329C44.3411 3.77061 44.3022 3.68197 44.2338 3.61697C39.5027 -0.757741 32.039 -0.757741 27.308 3.61697C27.2395 3.68192 27.2006 3.77054 27.2 3.86322C27.1993 3.9559 27.237 4.045 27.3046 4.11081L28.6025 5.37428C28.7361 5.50413 28.9532 5.50574 29.0889 5.37789C30.8916 3.7243 33.2839 2.80221 35.7713 2.80222ZM35.7679 7.0225C37.1252 7.02241 38.4341 7.53415 39.4402 8.45828C39.5763 8.58943 39.7907 8.58659 39.9233 8.45187L41.2106 7.13256C41.2784 7.06336 41.316 6.96948 41.315 6.87193C41.3141 6.77438 41.2746 6.6813 41.2054 6.61351C38.1416 3.72266 33.3968 3.72266 30.333 6.61351C30.2638 6.6813 30.2243 6.77443 30.2234 6.87201C30.2225 6.96959 30.2602 7.06346 30.3282 7.13256L31.6151 8.45187C31.7477 8.58659 31.9621 8.58943 32.0982 8.45828C33.1036 7.53476 34.4115 7.02307 35.7679 7.0225ZM38.2923 9.81605C38.2942 9.9214 38.2572 10.023 38.1899 10.0968L36.0132 12.5515C35.9494 12.6236 35.8624 12.6642 35.7717 12.6642C35.6809 12.6642 35.5939 12.6236 35.5301 12.5515L33.3531 10.0968C33.2858 10.0229 33.2488 9.92131 33.2508 9.81596C33.2528 9.71061 33.2936 9.61085 33.3636 9.54023C34.7537 8.22634 36.7896 8.22634 38.1797 9.54023C38.2497 9.6109 38.2904 9.7107 38.2923 9.81605Z" fill="white"/>
<rect opacity="0.35" x="52.8416" y="0.5" width="24" height="12" rx="3.8" fill="#655016" stroke="white"/>
<path opacity="0.4" d="M78.3416 4.78125V8.85672C79.1463 8.51155 79.6696 7.70859 79.6696 6.81899C79.6696 5.92938 79.1463 5.12642 78.3416 4.78125Z" fill="white"/>
<rect x="54.3416" y="2" width="21" height="9" rx="2.5" fill="white"/>
</svg>
