<svg width="12" height="11" viewBox="0 0 12 11" fill="none" xmlns="http://www.w3.org/2000/svg">
<path d="M4.67028 1.89351C5.17467 0.69733 5.42686 0.0992395 5.83659 0.016347C5.94432 -0.00544899 6.05567 -0.00544899 6.16341 0.016347C6.57314 0.0992395 6.82533 0.69733 7.32972 1.89351C7.61655 2.57376 7.75997 2.91388 8.02833 3.14521C8.1036 3.2101 8.1853 3.26789 8.2723 3.31777C8.58247 3.49561 8.96967 3.5286 9.74406 3.59457C11.055 3.70626 11.7104 3.7621 11.9106 4.11762C11.952 4.19125 11.9802 4.27097 11.994 4.35347C12.0603 4.75179 11.5785 5.16883 10.6148 6.0029L10.3471 6.23451C9.89658 6.62445 9.6713 6.81942 9.541 7.06275C9.46284 7.2087 9.41043 7.3659 9.38587 7.52803C9.34493 7.79831 9.4109 8.08116 9.54284 8.64685L9.58998 8.84896C9.82659 9.86343 9.94489 10.3707 9.79721 10.62C9.66456 10.844 9.42021 10.9873 9.15029 10.9996C8.8498 11.0132 8.4264 10.685 7.57959 10.0286C7.02168 9.59615 6.74272 9.37991 6.43305 9.29544C6.15005 9.21825 5.84995 9.21825 5.56695 9.29544C5.25728 9.37991 4.97832 9.59615 4.42041 10.0286C3.5736 10.685 3.1502 11.0132 2.84971 10.9996C2.57979 10.9873 2.33544 10.844 2.20279 10.62C2.05511 10.3707 2.17341 9.86344 2.41002 8.84896L2.45716 8.64685C2.5891 8.08116 2.65507 7.79831 2.61413 7.52803C2.58957 7.3659 2.53716 7.2087 2.459 7.06275C2.3287 6.81942 2.10342 6.62445 1.65287 6.23451L1.38525 6.0029C0.421537 5.16883 -0.0603196 4.75179 0.00603909 4.35347C0.0197826 4.27097 0.0479677 4.19125 0.0894225 4.11762C0.289582 3.7621 0.945036 3.70626 2.25594 3.59457C3.03033 3.5286 3.41753 3.49561 3.7277 3.31777C3.8147 3.26789 3.8964 3.2101 3.97167 3.14521C4.24003 2.91388 4.38345 2.57376 4.67028 1.89351Z" fill="#222222"/>
</svg>
