<svg width="19" height="16" viewBox="0 0 19 16" fill="none" xmlns="http://www.w3.org/2000/svg">
<path d="M1.6453 9.07544L8.61685 15.6245C8.857 15.8501 8.97707 15.9629 9.11864 15.9906C9.1824 16.0031 9.24798 16.0031 9.31173 15.9906C9.45331 15.9629 9.57338 15.8501 9.81353 15.6245L16.7851 9.07544C18.7466 7.23281 18.9848 4.20058 17.3351 2.07428L17.0249 1.67447C15.0513 -0.869203 11.0899 -0.44261 9.70318 2.46292C9.5073 2.87334 8.92308 2.87334 8.7272 2.46292C7.34047 -0.442609 3.37906 -0.869199 1.40552 1.67447L1.09532 2.07428C-0.554399 4.20059 -0.316202 7.23281 1.6453 9.07544Z" fill="white"/>
</svg>
