<svg width="19" height="16" viewBox="0 0 19 16" fill="none" xmlns="http://www.w3.org/2000/svg">
<path d="M1.64533 9.07544L8.61688 15.6245C8.85702 15.8501 8.9771 15.9629 9.11867 15.9906C9.18242 16.0031 9.24801 16.0031 9.31176 15.9906C9.45333 15.9629 9.57341 15.8501 9.81355 15.6245L16.7851 9.07544C18.7466 7.23281 18.9848 4.20058 17.3351 2.07428L17.0249 1.67447C15.0513 -0.869203 11.0899 -0.44261 9.70321 2.46292C9.50732 2.87334 8.92311 2.87334 8.72722 2.46292C7.34049 -0.44261 3.37908 -0.869199 1.40555 1.67447L1.09535 2.07428C-0.554373 4.20059 -0.316175 7.23281 1.64533 9.07544Z" fill="#C40C0C"/>
</svg>
